<?xml version="1.0" standalone="no"?>
<!DOCTYPE svg PUBLIC "-//W3C//DTD SVG 20010904//EN"
 "http://www.w3.org/TR/2001/REC-SVG-20010904/DTD/svg10.dtd">
<svg version="1.0" xmlns="http://www.w3.org/2000/svg"
 width="79.000000pt" height="80.000000pt" viewBox="0 0 79.000000 80.000000"
 preserveAspectRatio="xMidYMid meet">

<g transform="translate(0.000000,80.000000) scale(0.100000,-0.100000)"
fill="#000000" stroke="none">
<path d="M315 766 c-16 -7 -89 -74 -161 -147 -112 -114 -132 -141 -142 -180
-22 -88 3 -132 160 -285 137 -133 174 -153 260 -139 38 6 58 22 182 144 76 75
145 150 152 168 17 38 18 101 3 139 -13 36 -220 248 -278 285 -51 33 -123 39
-176 15z m210 -198 c31 -14 55 -55 55 -93 0 -39 -26 -82 -67 -110 -37 -25 -37
-25 -10 -25 15 0 36 -9 47 -20 47 -47 4 -110 -74 -110 -22 0 -78 3 -124 7 -69
5 -86 10 -107 31 -24 24 -25 30 -25 144 0 129 6 150 48 172 34 19 219 22 257
4z"/>
<path d="M340 395 l0 -55 55 0 55 0 0 55 0 55 -55 0 -55 0 0 -55z"/>
</g>
</svg>
